<svg width="70.899" height="76.953" viewBox="0 0 70.899 76.953" xmlns="http://www.w3.org/2000/svg">

  <path 
    fill-rule="evenodd"
    clip-rule="evenodd"
    d="M 43.04 44.886 L 43.04 0 L 62.784 0 L 62.784 46.591 A 29.272 29.272 0 0 1 61.885 53.999 A 23.408 23.408 0 0 1 58.825 60.955 A 25.49 25.49 0 0 1 49.096 69.654 A 30.874 30.874 0 0 1 47.798 70.295 A 34.523 34.523 0 0 1 38.605 73.037 A 46.05 46.05 0 0 1 31.392 73.58 A 45.591 45.591 0 0 1 23.085 72.858 A 33.984 33.984 0 0 1 14.915 70.295 A 27.003 27.003 0 0 1 7.489 65.282 A 24.438 24.438 0 0 1 3.924 60.955 A 24.247 24.247 0 0 1 0.31 51.087 A 31.571 31.571 0 0 1 0 46.591 L 0 0 L 19.744 0 L 19.744 44.886 A 13.037 13.037 0 0 0 20.216 48.451 A 11.176 11.176 0 0 0 21.236 50.906 Q 22.727 53.551 25.373 55.043 A 11.625 11.625 0 0 0 30.052 56.473 A 14.331 14.331 0 0 0 31.392 56.534 A 13.254 13.254 0 0 0 34.794 56.113 A 11.032 11.032 0 0 0 37.429 55.043 A 10.725 10.725 0 0 0 41.548 50.906 A 11.625 11.625 0 0 0 42.978 46.227 A 14.331 14.331 0 0 0 43.04 44.886 Z"
    fill="currentColor"
  />

</svg>