<svg width="70.899" height="76.953" viewBox="0 0 70.899 76.953" xmlns="http://www.w3.org/2000/svg">

  <path 
    fill-rule="evenodd"
    clip-rule="evenodd"
    d="M 0.195 13.867 L 0.195 13.281 A 7.489 7.489 0 0 0 0.192 13.092 Q 0.177 12.55 0.098 10.864 A 105.563 105.563 0 0 1 0.038 9.394 Q 0 8.24 0 7.324 A 54.451 54.451 0 0 1 0.034 5.305 Q 0.18 1.409 0.941 0.714 A 0.722 0.722 0 0 1 0.977 0.684 Q 1.221 0.684 1.709 0.732 A 16.287 16.287 0 0 0 1.938 0.754 Q 2.158 0.773 2.314 0.779 A 3.398 3.398 0 0 0 2.441 0.781 Q 9.491 0.446 18.488 0.398 A 571.229 571.229 0 0 1 21.484 0.391 L 28.125 0.391 A 2.337 2.337 0 0 1 28.392 0.442 Q 28.719 0.522 29.175 0.708 A 8.706 8.706 0 0 0 29.443 0.813 Q 29.887 0.977 30.078 0.977 Q 30.123 3.18 30.272 8.323 A 3050.899 3050.899 0 0 0 30.298 9.229 A 1130.833 1130.833 0 0 1 30.412 13.403 Q 30.454 15.051 30.487 16.547 A 613.577 613.577 0 0 1 30.542 19.385 A 299.47 299.47 0 0 1 30.586 24.488 A 284.247 284.247 0 0 1 30.566 27.832 L 30.566 46.875 A 57.771 57.771 0 0 0 30.573 47.736 Q 30.588 48.79 30.645 49.56 A 17.817 17.817 0 0 0 30.664 49.805 A 13.503 13.503 0 0 0 30.788 50.782 Q 30.865 51.257 30.978 51.787 A 26.035 26.035 0 0 0 31.128 52.441 A 5.29 5.29 0 0 0 31.476 53.451 Q 31.844 54.233 32.446 54.712 A 3.407 3.407 0 0 0 33.917 55.379 A 4.779 4.779 0 0 0 34.863 55.469 Q 36.914 55.469 38.184 53.735 A 6.576 6.576 0 0 0 39.448 49.992 A 8.112 8.112 0 0 0 39.453 49.707 L 39.453 31.836 Q 39.413 29.112 39.49 23.782 A 815.84 815.84 0 0 1 39.526 21.533 A 516.736 516.736 0 0 0 39.568 18.737 Q 39.628 13.678 39.551 10.547 L 39.551 7.031 A 8.517 8.517 0 0 0 39.545 6.728 Q 39.526 6.219 39.453 5.396 Q 39.373 4.49 39.359 3.933 A 8.773 8.773 0 0 1 39.356 3.711 L 39.356 1.367 Q 39.481 0.402 40.329 0.086 A 2.162 2.162 0 0 1 40.625 0 Q 47.803 0 60.476 0.114 A 6002.168 6002.168 0 0 1 68.75 0.195 L 68.75 0.977 L 70.899 0.977 A 498.944 498.944 0 0 0 70.66 9.258 Q 70.508 16.559 70.508 25.195 L 70.508 36.133 A 143.441 143.441 0 0 1 70.502 37.378 Q 70.484 39.415 70.414 42.707 A 865.984 865.984 0 0 1 70.41 42.871 Q 70.314 47.33 70.313 49.529 A 102.057 102.057 0 0 0 70.313 49.609 A 34.246 34.246 0 0 1 69.843 55.415 A 25.773 25.773 0 0 1 68.311 60.84 A 24.966 24.966 0 0 1 66.155 64.999 A 18.955 18.955 0 0 1 63.037 68.701 Q 59.766 71.68 55.127 73.584 A 41.213 41.213 0 0 1 45.752 76.221 Q 41.016 76.953 35.547 76.953 A 75.059 75.059 0 0 1 29.213 76.696 A 62.371 62.371 0 0 1 25.659 76.294 A 39.874 39.874 0 0 1 18.375 74.519 A 45.999 45.999 0 0 1 16.309 73.755 A 30.988 30.988 0 0 1 11.149 71.152 A 25.797 25.797 0 0 1 8.154 68.945 A 19.954 19.954 0 0 1 4.511 64.765 A 26.793 26.793 0 0 1 2.49 61.084 A 26.964 26.964 0 0 1 0.529 54.694 A 35.461 35.461 0 0 1 0 49.707 Q 0.195 25.79 0.195 13.972 A 1532.194 1532.194 0 0 0 0.195 13.867 Z"
    fill="currentColor"
  />

  <path 
    fill-rule="evenodd"
    clip-rule="evenodd"
    d="M 0.195 13.867 L 0.195 13.281 A 7.489 7.489 0 0 0 0.192 13.092 Q 0.177 12.55 0.098 10.864 A 105.563 105.563 0 0 1 0.038 9.394 Q 0 8.24 0 7.324 A 54.451 54.451 0 0 1 0.034 5.305 Q 0.18 1.409 0.941 0.714 A 0.722 0.722 0 0 1 0.977 0.684 Q 1.221 0.684 1.709 0.732 A 16.287 16.287 0 0 0 1.938 0.754 Q 2.158 0.773 2.314 0.779 A 3.398 3.398 0 0 0 2.441 0.781 Q 9.491 0.446 18.488 0.398 A 571.229 571.229 0 0 1 21.484 0.391 L 28.125 0.391 A 2.337 2.337 0 0 1 28.392 0.442 Q 28.719 0.522 29.175 0.708 A 8.706 8.706 0 0 0 29.443 0.813 Q 29.887 0.977 30.078 0.977 Q 30.123 3.18 30.272 8.323 A 3050.899 3050.899 0 0 0 30.298 9.229 A 1130.833 1130.833 0 0 1 30.412 13.403 Q 30.454 15.051 30.487 16.547 A 613.577 613.577 0 0 1 30.542 19.385 A 299.47 299.47 0 0 1 30.586 24.488 A 284.247 284.247 0 0 1 30.566 27.832 L 30.566 46.875 A 57.771 57.771 0 0 0 30.573 47.736 Q 30.588 48.79 30.645 49.56 A 17.817 17.817 0 0 0 30.664 49.805 A 13.503 13.503 0 0 0 30.788 50.782 Q 30.865 51.257 30.978 51.787 A 26.035 26.035 0 0 0 31.128 52.441 A 5.29 5.29 0 0 0 31.476 53.451 Q 31.844 54.233 32.446 54.712 A 3.407 3.407 0 0 0 33.917 55.379 A 4.779 4.779 0 0 0 34.863 55.469 Q 36.914 55.469 38.184 53.735 A 6.576 6.576 0 0 0 39.448 49.992 A 8.112 8.112 0 0 0 39.453 49.707 L 39.453 31.836 Q 39.413 29.112 39.49 23.782 A 815.84 815.84 0 0 1 39.526 21.533 A 516.736 516.736 0 0 0 39.568 18.737 Q 39.628 13.678 39.551 10.547 L 39.551 7.031 A 8.517 8.517 0 0 0 39.545 6.728 Q 39.526 6.219 39.453 5.396 Q 39.373 4.49 39.359 3.933 A 8.773 8.773 0 0 1 39.356 3.711 L 39.356 1.367 Q 39.481 0.402 40.329 0.086 A 2.162 2.162 0 0 1 40.625 0 Q 47.803 0 60.476 0.114 A 6002.168 6002.168 0 0 1 68.75 0.195 L 68.75 0.977 L 70.899 0.977 A 498.944 498.944 0 0 0 70.66 9.258 Q 70.508 16.559 70.508 25.195 L 70.508 36.133 A 143.441 143.441 0 0 1 70.502 37.378 Q 70.484 39.415 70.414 42.707 A 865.984 865.984 0 0 1 70.41 42.871 Q 70.314 47.33 70.313 49.529 A 102.057 102.057 0 0 0 70.313 49.609 A 34.246 34.246 0 0 1 69.843 55.415 A 25.773 25.773 0 0 1 68.311 60.84 A 24.966 24.966 0 0 1 66.155 64.999 A 18.955 18.955 0 0 1 63.037 68.701 Q 59.766 71.68 55.127 73.584 A 41.213 41.213 0 0 1 45.752 76.221 Q 41.016 76.953 35.547 76.953 A 75.059 75.059 0 0 1 29.213 76.696 A 62.371 62.371 0 0 1 25.659 76.294 A 39.874 39.874 0 0 1 18.375 74.519 A 45.999 45.999 0 0 1 16.309 73.755 A 30.988 30.988 0 0 1 11.149 71.152 A 25.797 25.797 0 0 1 8.154 68.945 A 19.954 19.954 0 0 1 4.511 64.765 A 26.793 26.793 0 0 1 2.49 61.084 A 26.964 26.964 0 0 1 0.529 54.694 A 35.461 35.461 0 0 1 0 49.707 Q 0.195 25.79 0.195 13.972 A 1532.194 1532.194 0 0 0 0.195 13.867 Z"
    fill="#FF5D01"
  />


</svg>