<svg width="285.84" height="79.203" viewBox="0 0 285.84 79.203" xmlns="http://www.w3.org/2000/svg">
  <path 
    d="M 84.517 78.127 L 64.915 78.127 L 64.915 23.582 L 83.523 23.582 L 83.523 33.951 L 84.091 33.951 Q 85.795 28.837 89.915 25.854 Q 94.034 22.872 99.716 22.872 A 18.273 18.273 0 0 1 104.914 23.584 A 15.236 15.236 0 0 1 109.624 25.908 Q 113.778 28.944 114.631 33.951 L 115.199 33.951 A 13.95 13.95 0 0 1 121.094 25.908 Q 125.604 22.872 131.676 22.872 Q 139.524 22.872 144.407 27.914 A 16.949 16.949 0 0 1 148.859 36.656 A 24.305 24.305 0 0 1 149.29 41.337 L 149.29 78.127 L 129.688 78.127 L 129.688 46.309 A 11.449 11.449 0 0 0 129.475 44.032 Q 129.067 42.022 127.876 40.68 A 5.967 5.967 0 0 0 123.891 38.684 A 8.369 8.369 0 0 0 123.011 38.639 A 7.191 7.191 0 0 0 120.885 38.938 A 5.619 5.619 0 0 0 118.235 40.68 Q 116.683 42.483 116.501 45.49 A 13.575 13.575 0 0 0 116.477 46.309 L 116.477 78.127 L 97.727 78.127 L 97.727 46.309 A 11.449 11.449 0 0 0 97.514 44.032 Q 97.106 42.022 95.916 40.68 A 5.967 5.967 0 0 0 91.93 38.684 A 8.369 8.369 0 0 0 91.051 38.639 A 7.44 7.44 0 0 0 89.333 38.828 A 5.729 5.729 0 0 0 87.571 39.562 A 5.891 5.891 0 0 0 85.596 41.664 A 7.314 7.314 0 0 0 85.316 42.207 A 8.263 8.263 0 0 0 84.693 44.223 Q 84.517 45.194 84.517 46.309 L 84.517 78.127 Z M 178.551 47.445 L 178.551 78.127 L 158.949 78.127 L 158.949 23.582 L 177.557 23.582 L 177.557 33.951 L 178.125 33.951 A 15.424 15.424 0 0 1 184.393 25.819 A 17.993 17.993 0 0 1 192.511 22.993 A 22.716 22.716 0 0 1 194.886 22.872 A 21.332 21.332 0 0 1 200.14 23.492 A 17.063 17.063 0 0 1 204.954 25.517 Q 209.233 28.163 211.594 32.779 Q 213.921 37.327 213.921 43.151 A 29.302 29.302 0 0 1 213.92 43.326 L 213.92 78.127 L 194.318 78.127 L 194.318 47.445 Q 194.354 43.397 192.276 41.089 A 6.804 6.804 0 0 0 188.354 38.943 A 10.005 10.005 0 0 0 186.506 38.781 A 9.424 9.424 0 0 0 184.378 39.011 A 7.406 7.406 0 0 0 182.298 39.828 A 6.928 6.928 0 0 0 179.545 42.811 A 9.127 9.127 0 0 0 178.787 45.083 Q 178.568 46.18 178.551 47.445 Z M 35.369 54.264 L 35.369 23.582 L 54.972 23.582 L 54.972 78.127 L 36.364 78.127 L 36.364 67.758 L 35.795 67.758 Q 34.02 72.978 29.581 75.908 A 17.622 17.622 0 0 1 22.205 78.625 A 22.932 22.932 0 0 1 19.034 78.837 A 21.01 21.01 0 0 1 13.676 78.18 A 17.135 17.135 0 0 1 9.038 76.21 A 17.856 17.856 0 0 1 2.397 68.965 A 21.712 21.712 0 0 1 0.249 61.98 A 27.598 27.598 0 0 1 0 58.383 L 0 23.582 L 19.602 23.582 L 19.602 54.264 A 13.094 13.094 0 0 0 19.864 56.841 Q 20.189 58.389 20.918 59.586 A 7.234 7.234 0 0 0 21.68 60.62 A 6.666 6.666 0 0 0 25.519 62.756 A 9.917 9.917 0 0 0 27.415 62.928 A 9.633 9.633 0 0 0 29.551 62.702 A 7.396 7.396 0 0 0 31.658 61.881 A 7.039 7.039 0 0 0 34.428 58.898 Q 35.371 57.03 35.371 54.452 A 14.324 14.324 0 0 0 35.369 54.264 Z M 243.182 78.127 L 223.58 78.127 L 223.58 23.582 L 243.182 23.582 L 243.182 78.127 Z M 226.562 15.272 A 9.734 9.734 0 0 0 233.416 17.9 Q 237.393 17.9 240.217 15.272 A 10.744 10.744 0 0 0 240.475 15.023 A 8.273 8.273 0 0 0 243.04 8.951 A 8.278 8.278 0 0 0 242.266 5.377 A 8.993 8.993 0 0 0 240.217 2.63 Q 237.393 0.002 233.381 0.002 A 9.689 9.689 0 0 0 226.562 2.63 A 10.782 10.782 0 0 0 226.302 2.879 A 8.248 8.248 0 0 0 223.722 8.951 Q 223.722 12.644 226.563 15.272 Z"
    fill="currentColor"
  />
</svg>