<svg width="285.84" height="79.203" viewBox="0 0 285.84 79.203" xmlns="http://www.w3.org/2000/svg"><g id="svgGroup" stroke-linecap="round" fill-rule="evenodd" font-size="9pt" stroke="#000000" stroke-width="0.25mm" fill="#000000" style="stroke:#000000;stroke-width:0.25mm;fill:#000000"><path d="M 176.904 31.006 L 177.246 32.324 Q 178.547 36.852 178.564 37.982 A 1.951 1.951 0 0 1 178.564 38.013 A 10.304 10.304 0 0 1 178.545 38.659 Q 178.503 39.325 178.369 39.795 Q 178.686 40.066 178.709 40.59 A 1.902 1.902 0 0 1 178.711 40.674 L 178.613 42.578 Q 178.711 46.094 178.711 47.51 L 178.711 77.49 L 149.121 77.49 L 149.072 48.779 L 149.121 47.705 A 18.933 18.933 0 0 0 148.982 45.299 Q 148.655 42.759 147.556 41.599 A 3.144 3.144 0 0 0 145.166 40.625 Q 141.003 40.625 140.74 47.484 A 24.965 24.965 0 0 0 140.723 48.437 L 140.82 51.807 L 140.82 77.441 L 127.246 77.49 L 113.721 77.49 L 113.672 51.27 L 113.77 48.096 Q 113.77 41.748 109.863 40.576 A 4.132 4.132 0 0 0 106.121 42.999 Q 105.273 44.719 105.273 47.656 L 105.371 50.586 L 105.371 77.441 L 89.648 77.49 L 74.023 77.49 L 73.975 48.145 L 73.975 18.994 L 87.354 18.945 L 100.781 18.945 L 101.123 20.117 A 977.393 977.393 0 0 1 101.971 23.138 Q 102.79 26.072 103.374 28.252 A 258.562 258.562 0 0 1 103.857 30.078 A 40.76 40.76 0 0 1 108.475 23.605 A 35.139 35.139 0 0 1 111.255 20.776 A 18.498 18.498 0 0 1 114.024 18.674 Q 115.739 17.626 117.45 17.213 A 9.458 9.458 0 0 1 119.678 16.943 L 122.314 16.943 A 11.557 11.557 0 0 1 126.815 17.9 Q 128.37 18.553 129.95 19.652 A 22.627 22.627 0 0 1 131.006 20.435 A 29.839 29.839 0 0 1 138.33 28.809 Q 146.795 17.75 155.217 16.998 A 13.81 13.81 0 0 1 156.445 16.943 A 22.022 22.022 0 0 1 171.822 23.12 A 28.731 28.731 0 0 1 172.363 23.633 A 18.545 18.545 0 0 1 175.323 27.367 A 15.587 15.587 0 0 1 176.904 31.006 Z M 31.104 19.043 L 31.104 23.73 L 31.006 54.736 Q 31.006 59.717 34.57 59.717 A 2.454 2.454 0 0 0 36.916 58.184 Q 37.549 56.874 37.549 54.443 L 37.549 19.092 L 53.613 19.043 L 69.531 19.043 L 69.58 77.393 L 42.236 77.393 L 39.941 69.482 Q 33.699 79.187 22.83 79.199 A 24.403 24.403 0 0 1 22.803 79.199 A 27.053 27.053 0 0 1 14.918 78.096 A 22.123 22.123 0 0 1 7.031 73.828 L 7.08 73.486 Q 6.446 73.3 5.583 72.358 A 12.231 12.231 0 0 1 5.029 71.704 A 31.828 31.828 0 0 1 4.259 70.696 Q 3.925 70.238 3.653 69.825 A 13.817 13.817 0 0 1 3.174 69.043 Q 0.173 63.595 0.009 53.302 A 75.713 75.713 0 0 1 0 52.1 L 0.049 50.537 L 0.049 19.092 L 15.576 19.092 L 31.104 19.043 Z M 183.496 18.994 L 196.484 19.043 L 209.57 18.994 Q 209.814 20.02 210.449 22.217 Q 211.084 24.414 211.67 26.611 L 212.598 30.273 A 225.29 225.29 0 0 1 213.062 29.109 Q 214.316 25.993 214.805 25.099 A 2.068 2.068 0 0 1 214.99 24.805 L 215.771 23.828 A 15.939 15.939 0 0 1 226.135 17.328 A 24.927 24.927 0 0 1 230.908 16.895 A 16.075 16.075 0 0 1 239.116 19.179 A 19.805 19.805 0 0 1 240.112 19.8 A 20.191 20.191 0 0 1 246.924 27.368 Q 249.365 32.031 249.365 37.207 A 3.838 3.838 0 0 1 249.351 37.549 Q 249.319 37.9 249.219 38.135 L 249.219 68.164 L 249.268 77.49 L 220.703 77.49 L 220.605 53.076 L 220.801 48.096 Q 220.801 43.591 219.363 41.803 A 3.067 3.067 0 0 0 216.846 40.625 A 3.522 3.522 0 0 0 213.477 42.727 Q 212.693 44.294 212.608 47.027 A 21.91 21.91 0 0 0 212.598 47.705 Q 212.598 49.059 212.634 49.68 A 7.267 7.267 0 0 0 212.646 49.854 L 212.646 50.586 L 212.695 51.416 L 212.695 77.441 L 198.145 77.49 L 183.545 77.49 L 183.496 48.193 L 183.496 18.994 Z M 285.742 60.449 L 285.742 61.963 L 285.791 62.402 L 285.84 69.727 Q 285.84 71.259 285.725 73.25 A 100.334 100.334 0 0 1 285.645 74.512 Q 285.455 77.21 285.312 77.384 A 0.042 0.042 0 0 1 285.303 77.393 L 284.424 77.49 L 266.65 77.49 L 264.6 77.686 A 472.075 472.075 0 0 1 261.953 77.679 Q 257.089 77.651 255.56 77.515 A 8.645 8.645 0 0 1 255.322 77.49 L 255.322 77.148 L 255.273 76.221 L 255.273 74.023 Q 255.273 64.404 255.566 58.057 L 256.104 20.459 L 256.104 18.994 L 259.912 18.945 L 260.742 18.994 L 262.158 18.994 L 263.379 19.043 L 264.014 18.994 L 267.529 18.994 L 268.262 18.945 L 284.912 19.141 Q 285.107 19.092 285.205 19.092 A 0.065 0.065 0 0 1 285.261 19.127 Q 285.296 19.183 285.302 19.327 A 1.495 1.495 0 0 1 285.303 19.385 L 285.352 24.023 Q 285.389 27.575 285.484 32.973 A 2729.201 2729.201 0 0 0 285.547 36.45 A 1591.112 1591.112 0 0 1 285.611 40.059 Q 285.693 45.044 285.693 47.461 L 285.645 53.564 L 285.645 56.152 L 285.791 58.74 L 285.791 60.254 A 0.178 0.178 0 0 1 285.789 60.28 Q 285.782 60.326 285.754 60.412 A 2.681 2.681 0 0 1 285.742 60.449 Z M 255.371 0.488 L 285.547 0.391 L 285.596 13.77 L 255.518 13.77 A 359.544 359.544 0 0 0 255.511 11.594 Q 255.493 8.582 255.42 7.08 L 255.371 0.488 Z M 254.883 0.488 L 255.371 0.488 L 255.371 0 L 254.883 0.488 Z"/></g></svg>